<svg id="svg" xmlns="http://www.w3.org/2000/svg" xmlns:xlink="http://www.w3.org/1999/xlink" width="400" height="400" viewBox="0, 0, 400,400"><g id="svgg"><path id="path0" d="M83.203 20.039 C 53.706 26.386,30.707 47.858,21.320 77.812 L 19.141 84.766 19.141 200.000 L 19.141 315.234 21.320 322.188 C 30.191 350.496,49.520 369.803,77.903 378.707 L 84.766 380.859 200.000 380.859 L 315.234 380.859 322.188 378.680 C 347.815 370.649,367.360 352.713,376.222 329.095 C 381.581 314.813,381.320 321.900,381.078 197.266 L 380.859 84.766 378.680 77.812 C 369.806 49.494,350.506 30.194,322.188 21.320 L 315.234 19.141 201.953 19.001 C 103.628 18.880,87.950 19.017,83.203 20.039 M316.570 33.752 C 341.252 40.517,359.432 58.692,366.263 83.430 L 368.358 91.016 368.358 200.000 L 368.358 308.984 366.263 316.570 C 359.434 341.301,341.303 359.432,316.570 366.264 L 308.984 368.359 200.000 368.359 L 91.016 368.359 83.430 366.264 C 58.697 359.432,40.566 341.301,33.737 316.570 L 31.642 308.984 31.642 200.000 L 31.642 91.016 33.737 83.430 C 41.594 54.976,65.062 34.872,93.750 32.019 C 96.973 31.699,146.719 31.490,204.297 31.555 L 308.984 31.673 316.570 33.752 M194.027 82.799 C 184.899 84.730,177.318 91.189,173.545 100.253 C 148.747 159.821,96.875 295.137,96.875 300.258 C 96.875 313.174,105.648 321.820,118.792 321.858 C 132.021 321.896,135.716 317.944,145.384 293.415 C 149.291 283.501,155.293 268.271,158.720 259.570 L 164.952 243.750 200.000 243.750 L 235.048 243.750 242.992 263.867 C 247.362 274.932,253.363 290.161,256.328 297.711 C 264.094 317.485,268.638 321.894,281.208 321.858 C 294.364 321.820,303.125 313.175,303.125 300.232 C 303.125 294.537,303.010 294.229,264.748 197.065 C 243.640 143.464,225.696 98.276,224.872 96.647 C 219.855 86.734,205.628 80.346,194.027 82.799 M204.382 96.466 C 208.428 97.668,211.496 100.304,213.495 104.297 C 217.819 112.932,289.844 297.925,289.844 300.394 C 289.844 304.637,285.740 308.594,281.340 308.594 C 275.169 308.594,274.862 308.037,259.375 268.758 C 251.668 249.211,244.757 232.776,244.016 232.234 C 242.066 230.808,157.944 230.801,155.995 232.227 C 155.261 232.764,148.352 249.199,140.642 268.750 C 125.147 308.044,124.843 308.594,118.660 308.594 C 114.277 308.594,110.156 304.635,110.156 300.426 C 110.156 297.882,182.500 112.239,186.738 103.906 C 188.682 100.085,191.449 97.719,195.424 96.479 C 199.816 95.109,199.812 95.109,204.382 96.466 M195.826 131.445 C 192.883 134.143,165.345 204.761,166.027 207.863 C 167.048 212.511,166.967 212.500,200.000 212.500 C 225.521 212.500,230.377 212.321,231.796 211.327 C 235.599 208.663,235.364 207.806,220.294 169.378 C 205.433 131.486,204.514 129.688,200.000 129.688 C 198.749 129.688,196.889 130.471,195.826 131.445 M209.027 177.547 L 217.663 199.609 208.831 199.829 C 203.974 199.951,196.031 199.951,191.180 199.829 L 182.361 199.609 190.985 177.552 C 195.728 165.421,199.785 155.493,200.000 155.490 C 200.215 155.488,204.277 165.413,209.027 177.547 " stroke="none" fill="#FFFFFF" fill-rule="evenodd"></path></g></svg>