<svg id="svg" xmlns="http://www.w3.org/2000/svg" xmlns:xlink="http://www.w3.org/1999/xlink" width="400" height="400" viewBox="0, 0, 400,400"><g id="svgg"><path id="path0" d="M83.203 20.039 C 53.706 26.386,30.707 47.858,21.320 77.812 L 19.141 84.766 19.141 200.000 L 19.141 315.234 21.320 322.188 C 30.191 350.496,49.520 369.803,77.903 378.707 L 84.766 380.859 200.000 380.859 L 315.234 380.859 322.188 378.680 C 347.815 370.649,367.360 352.713,376.222 329.095 C 381.581 314.813,381.320 321.900,381.078 197.266 L 380.859 84.766 378.680 77.812 C 369.806 49.494,350.506 30.194,322.188 21.320 L 315.234 19.141 201.953 19.001 C 103.628 18.880,87.950 19.017,83.203 20.039 M316.570 33.752 C 341.252 40.517,359.432 58.692,366.263 83.430 L 368.358 91.016 368.358 200.000 L 368.358 308.984 366.263 316.570 C 359.434 341.301,341.303 359.432,316.570 366.264 L 308.984 368.359 200.000 368.359 L 91.016 368.359 83.430 366.264 C 58.697 359.432,40.566 341.301,33.737 316.570 L 31.642 308.984 31.642 200.000 L 31.642 91.016 33.737 83.430 C 41.594 54.976,65.062 34.872,93.750 32.019 C 96.973 31.699,146.719 31.490,204.297 31.555 L 308.984 31.673 316.570 33.752 M119.579 79.709 C 111.020 82.787,103.855 89.273,99.751 97.656 L 97.266 102.734 97.059 204.158 C 96.860 301.787,96.907 305.706,98.313 308.885 C 105.864 325.955,130.325 326.612,138.619 309.968 L 140.625 305.943 140.625 263.909 L 140.625 221.875 204.534 221.875 L 268.443 221.875 272.468 219.869 C 288.624 211.819,288.624 188.181,272.468 180.131 L 268.443 178.125 204.534 178.125 L 140.625 178.125 140.625 150.000 L 140.625 121.875 213.909 121.875 L 287.193 121.875 291.218 119.869 C 307.374 111.819,307.374 88.181,291.218 80.131 L 287.193 78.125 205.511 78.153 C 126.451 78.180,123.692 78.230,119.579 79.709 M282.958 91.433 C 291.990 93.942,291.990 106.058,282.958 108.567 C 281.087 109.086,254.011 109.368,205.664 109.371 C 132.295 109.375,131.228 109.397,129.688 110.938 C 128.168 112.457,128.125 113.542,128.125 150.000 C 128.125 186.458,128.168 187.543,129.688 189.063 C 131.225 190.600,132.295 190.625,196.289 190.629 C 238.242 190.632,262.350 190.918,264.208 191.433 C 273.240 193.942,273.240 206.058,264.208 208.567 C 262.350 209.082,238.242 209.368,196.289 209.371 C 132.295 209.375,131.225 209.400,129.688 210.938 C 128.163 212.462,128.125 213.545,128.121 255.664 C 128.118 282.696,127.817 299.904,127.317 301.708 C 124.548 311.675,111.297 310.348,109.796 299.953 C 109.520 298.045,109.401 254.121,109.530 202.344 L 109.766 108.203 111.563 104.297 C 114.813 97.236,120.666 92.666,128.063 91.414 C 133.650 90.469,279.549 90.487,282.958 91.433 " stroke="none" fill="#FFFFFF" fill-rule="evenodd"></path></g></svg>