<?xml version="1.0" standalone="no"?>
<!DOCTYPE svg PUBLIC "-//W3C//DTD SVG 20010904//EN"
 "http://www.w3.org/TR/2001/REC-SVG-20010904/DTD/svg10.dtd">
<svg version="1.0" xmlns="http://www.w3.org/2000/svg"
 width="512.000000pt" height="512.000000pt" viewBox="0 0 512.000000 512.000000"
 preserveAspectRatio="xMidYMid meet">

<g transform="translate(0.000000,512.000000) scale(0.100000,-0.100000)"
fill="#00FF00" stroke="none">
<path d="M1042 4780 c-33 -15 -47 -29 -62 -62 -18 -39 -20 -67 -20 -300 l0
-258 -257 0 c-234 0 -262 -2 -301 -20 -33 -15 -47 -29 -62 -62 -19 -42 -20
-81 -20 -1758 0 -1677 1 -1716 20 -1758 15 -33 29 -47 62 -62 42 -19 81 -20
1758 -20 1677 0 1716 1 1758 20 33 15 47 29 62 62 18 39 20 67 20 301 l0 257
258 0 c233 0 261 2 300 20 33 15 47 29 62 62 19 42 20 81 20 1758 0 1677 -1
1716 -20 1758 -15 33 -29 47 -62 62 -42 19 -81 20 -1758 20 -1677 0 -1716 -1
-1758 -20z m3278 -1820 l0 -1520 -160 0 -160 0 0 1298 c0 1263 -1 1298 -20
1340 -15 33 -29 47 -62 62 -42 19 -77 20 -1340 20 l-1298 0 0 160 0 160 1520
0 1520 0 0 -1520z m-640 -640 l0 -1520 -1520 0 -1520 0 0 1520 0 1520 1520 0
1520 0 0 -1520z"/>
<path d="M2002 3180 c-33 -15 -47 -29 -62 -62 -18 -40 -20 -68 -20 -380 l0
-338 -337 0 c-313 0 -341 -2 -381 -20 -108 -49 -108 -231 0 -280 40 -18 68
-20 381 -20 l337 0 0 -337 c0 -313 2 -341 20 -381 34 -74 130 -102 218 -62 33
15 47 29 62 62 18 40 20 68 20 381 l0 337 338 0 c312 0 340 2 380 20 108 49
108 231 0 280 -40 18 -68 20 -380 20 l-338 0 0 338 c0 312 -2 340 -20 380 -22
48 -79 82 -140 82 -19 0 -54 -9 -78 -20z"/>
</g>
</svg>
