<svg id="svg" xmlns="http://www.w3.org/2000/svg" xmlns:xlink="http://www.w3.org/1999/xlink" width="400" height="400" viewBox="0, 0, 400,400"><g id="svgg"><path id="path0" d="M83.203 20.039 C 53.706 26.386,30.707 47.858,21.320 77.812 L 19.141 84.766 19.141 200.000 L 19.141 315.234 21.320 322.188 C 30.191 350.496,49.520 369.803,77.903 378.707 L 84.766 380.859 200.000 380.859 L 315.234 380.859 322.188 378.680 C 347.815 370.649,367.360 352.713,376.222 329.095 C 381.581 314.813,381.320 321.900,381.078 197.266 L 380.859 84.766 378.680 77.812 C 369.806 49.494,350.506 30.194,322.188 21.320 L 315.234 19.141 201.953 19.001 C 103.628 18.880,87.950 19.017,83.203 20.039 M316.570 33.752 C 341.252 40.517,359.432 58.692,366.263 83.430 L 368.358 91.016 368.358 200.000 L 368.358 308.984 366.263 316.570 C 359.434 341.301,341.303 359.432,316.570 366.264 L 308.984 368.359 200.000 368.359 L 91.016 368.359 83.430 366.264 C 58.697 359.432,40.566 341.301,33.737 316.570 L 31.642 308.984 31.642 200.000 L 31.642 91.016 33.737 83.430 C 41.594 54.976,65.062 34.872,93.750 32.019 C 96.973 31.699,146.719 31.490,204.297 31.555 L 308.984 31.673 316.570 33.752 M125.829 79.709 C 117.270 82.787,110.105 89.273,106.001 97.656 L 103.516 102.734 103.516 200.000 L 103.516 297.266 105.318 301.145 C 109.468 310.077,116.687 316.847,125.459 320.031 L 130.540 321.875 194.712 321.875 C 266.831 321.875,263.489 322.116,276.172 316.004 C 292.152 308.303,303.974 293.697,308.134 276.513 C 309.928 269.102,309.928 230.898,308.134 223.487 C 303.600 204.758,287.694 186.914,270.393 181.147 C 269.683 180.910,269.749 179.710,270.665 176.190 C 272.432 169.407,272.409 130.821,270.634 123.487 C 265.551 102.490,248.353 84.961,227.638 79.663 C 218.411 77.303,132.412 77.342,125.829 79.709 M223.828 92.448 C 240.244 97.106,253.186 110.180,257.597 126.563 C 258.728 130.764,258.959 134.946,258.937 150.781 L 258.910 169.922 256.408 177.193 C 252.451 188.693,252.980 190.040,262.586 192.917 C 286.766 200.159,296.332 216.079,296.416 249.219 C 296.484 276.126,294.389 282.972,282.431 294.931 C 268.177 309.185,269.431 308.984,194.531 308.984 L 133.203 308.984 129.119 307.138 C 124.094 304.866,119.478 299.993,117.505 294.876 C 115.192 288.880,115.182 111.147,117.493 105.153 C 120.274 97.945,126.624 92.748,134.313 91.387 C 141.769 90.067,218.650 90.979,223.828 92.448 M135.938 110.938 C 134.418 112.457,134.375 113.542,134.375 150.000 C 134.375 186.458,134.418 187.543,135.938 189.062 C 138.471 191.596,216.395 191.483,223.213 188.936 C 229.457 186.603,236.603 179.457,238.936 173.213 C 241.498 166.354,241.498 133.646,238.936 126.787 C 236.603 120.543,229.457 113.397,223.213 111.064 C 216.395 108.517,138.471 108.404,135.938 110.938 M219.141 123.940 C 226.880 128.088,227.734 130.680,227.734 150.000 C 227.734 178.335,228.875 177.645,181.445 177.974 L 146.875 178.214 146.875 150.000 L 146.875 121.786 181.445 122.026 C 215.059 122.259,216.102 122.312,219.141 123.940 M135.938 210.938 C 134.418 212.457,134.375 213.542,134.375 250.000 C 134.375 286.458,134.418 287.543,135.938 289.063 C 138.487 291.612,253.863 291.495,260.713 288.936 C 266.957 286.603,274.103 279.457,276.436 273.213 C 278.998 266.354,278.998 233.646,276.436 226.787 C 274.103 220.543,266.957 213.397,260.713 211.064 C 253.863 208.505,138.487 208.388,135.938 210.938 M256.641 223.940 C 264.380 228.088,265.234 230.680,265.234 250.000 C 265.234 279.477,269.445 277.667,200.195 277.960 L 146.875 278.186 146.875 250.000 L 146.875 221.814 200.195 222.040 C 252.999 222.263,253.546 222.282,256.641 223.940 " stroke="none" fill="#FFFFFF" fill-rule="evenodd"></path></g></svg>