<svg id="svg" xmlns="http://www.w3.org/2000/svg" xmlns:xlink="http://www.w3.org/1999/xlink" width="400" height="400" viewBox="0, 0, 400,400"><g id="svgg"><path id="path0" d="M83.203 20.039 C 53.706 26.386,30.707 47.858,21.320 77.812 L 19.141 84.766 19.141 200.000 L 19.141 315.234 21.320 322.188 C 30.191 350.496,49.520 369.803,77.903 378.707 L 84.766 380.859 200.000 380.859 L 315.234 380.859 322.188 378.680 C 347.815 370.649,367.360 352.713,376.222 329.095 C 381.581 314.813,381.320 321.900,381.078 197.266 L 380.859 84.766 378.680 77.812 C 369.806 49.494,350.506 30.194,322.188 21.320 L 315.234 19.141 201.953 19.001 C 103.628 18.880,87.950 19.017,83.203 20.039 M316.570 33.752 C 341.252 40.517,359.432 58.692,366.263 83.430 L 368.358 91.016 368.358 200.000 L 368.358 308.984 366.263 316.570 C 359.434 341.301,341.303 359.432,316.570 366.264 L 308.984 368.359 200.000 368.359 L 91.016 368.359 83.430 366.264 C 58.697 359.432,40.566 341.301,33.737 316.570 L 31.642 308.984 31.642 200.000 L 31.642 91.016 33.737 83.430 C 41.594 54.976,65.062 34.872,93.750 32.019 C 96.973 31.699,146.719 31.490,204.297 31.555 L 308.984 31.673 316.570 33.752 M192.969 79.274 C 111.534 93.011,66.817 180.077,103.076 254.297 C 119.238 287.379,149.537 311.005,186.958 319.707 C 197.715 322.208,278.447 322.842,283.816 320.468 C 301.387 312.695,301.522 287.544,284.035 279.602 C 281.112 278.274,278.252 278.157,248.047 278.135 C 202.472 278.102,194.605 277.203,179.985 270.356 C 125.679 244.920,119.299 169.238,168.657 135.975 C 186.968 123.635,196.720 121.902,248.047 121.865 C 278.252 121.843,281.112 121.726,284.035 120.398 C 301.408 112.508,301.408 87.492,284.035 79.602 C 280.009 77.773,203.498 77.497,192.969 79.274 M276.708 91.433 C 285.740 93.942,285.740 106.058,276.708 108.567 C 274.938 109.058,260.088 109.368,238.188 109.371 C 193.064 109.376,185.108 110.665,167.616 120.804 C 106.354 156.314,106.333 243.894,167.578 279.164 C 185.290 289.365,189.247 290.017,236.719 290.557 C 266.649 290.898,277.388 291.264,278.650 291.987 C 286.828 296.669,284.332 307.567,274.752 309.004 C 267.459 310.097,202.586 308.885,194.725 307.509 C 148.795 299.465,112.429 263.061,105.085 217.775 C 94.843 154.623,140.702 96.453,204.688 91.434 C 216.386 90.517,273.405 90.516,276.708 91.433 " stroke="none" fill="#FFFFFF" fill-rule="evenodd"></path></g></svg>