<svg id="svg" xmlns="http://www.w3.org/2000/svg" xmlns:xlink="http://www.w3.org/1999/xlink" width="400" height="400" viewBox="0, 0, 400,400"><g id="svgg"><path id="path0" d="M83.203 20.039 C 53.706 26.386,30.707 47.858,21.320 77.812 L 19.141 84.766 19.141 200.000 L 19.141 315.234 21.320 322.188 C 30.191 350.496,49.520 369.803,77.903 378.707 L 84.766 380.859 200.000 380.859 L 315.234 380.859 322.188 378.680 C 347.815 370.649,367.360 352.713,376.222 329.095 C 381.581 314.813,381.320 321.900,381.078 197.266 L 380.859 84.766 378.680 77.812 C 369.806 49.494,350.506 30.194,322.188 21.320 L 315.234 19.141 201.953 19.001 C 103.628 18.880,87.950 19.017,83.203 20.039 M316.570 33.752 C 341.252 40.517,359.432 58.692,366.263 83.430 L 368.358 91.016 368.358 200.000 L 368.358 308.984 366.263 316.570 C 359.434 341.301,341.303 359.432,316.570 366.264 L 308.984 368.359 200.000 368.359 L 91.016 368.359 83.430 366.264 C 58.697 359.432,40.566 341.301,33.737 316.570 L 31.642 308.984 31.642 200.000 L 31.642 91.016 33.737 83.430 C 41.594 54.976,65.062 34.872,93.750 32.019 C 96.973 31.699,146.719 31.490,204.297 31.555 L 308.984 31.673 316.570 33.752 M132.079 79.685 C 123.476 82.828,116.346 89.291,112.251 97.656 L 109.766 102.734 109.766 200.000 L 109.766 297.266 111.811 301.563 C 116.071 310.512,123.605 317.378,132.364 320.293 C 139.915 322.806,207.886 322.343,219.292 319.701 C 277.680 306.175,315.198 259.348,315.198 200.000 C 315.198 140.876,277.491 93.763,219.414 80.324 C 208.356 77.765,138.728 77.256,132.079 79.685 M211.525 92.503 C 302.208 108.235,334.010 220.543,265.166 281.934 C 241.138 303.361,222.058 308.860,171.484 308.936 L 139.453 308.984 135.369 307.138 C 130.344 304.866,125.728 299.993,123.755 294.876 C 121.442 288.880,121.432 111.147,123.743 105.153 C 126.519 97.957,132.837 92.778,140.563 91.366 C 147.043 90.182,203.347 91.084,211.525 92.503 M142.188 110.938 C 139.681 113.444,139.732 286.607,142.240 289.115 C 144.730 291.605,206.394 291.035,215.829 288.435 C 262.306 275.628,290.421 233.086,283.643 185.825 C 278.318 148.695,247.495 117.012,210.404 110.544 C 198.879 108.534,144.276 108.849,142.188 110.938 M199.609 122.654 C 272.339 129.131,297.699 223.519,237.593 264.025 C 220.724 275.393,208.114 278.106,172.070 278.118 L 153.125 278.125 153.125 200.000 L 153.125 121.875 172.070 121.882 C 182.490 121.885,194.883 122.233,199.609 122.654 " stroke="none" fill="#FFFFFF" fill-rule="evenodd"></path></g></svg>